<svg width="41" height="51" viewBox="0 0 41 51" fill="none" xmlns="http://www.w3.org/2000/svg">
<path d="M40.3271 13.6092H28.296C27.9618 13.6092 27.7383 13.389 27.7383 13.0597L27.7404 1.20836C27.7404 0.879099 27.9639 0.658888 28.2981 0.658888C28.6323 0.658888 28.8558 0.879083 28.8558 1.20836L28.8537 12.5123H40.3271C40.6613 12.5123 40.8848 12.7325 40.8848 13.0618C40.8848 13.3911 40.6613 13.6092 40.3271 13.6092Z" fill="#99A3AD"/>
<path d="M36.5402 50.7068H4.56807C2.00518 50.7068 0 48.7312 0 46.2062L0.00208924 5.04835C0.00208924 2.5233 2.00727 0.547729 4.57015 0.547729H28.2981C28.4088 0.547729 28.6323 0.656797 28.743 0.656797L40.8848 12.5102C40.9955 12.6193 40.9955 12.7304 40.9955 12.9486V46.2041C41.1083 48.7312 39.1031 50.7068 36.5402 50.7068ZM4.56807 1.75573C2.67566 1.75573 1.2261 3.18388 1.2261 5.04835V46.2062C1.2261 48.0727 2.7864 49.6078 4.67875 49.6078H36.6509C38.5454 49.6078 40.1036 48.0706 40.1036 46.2062L40.1057 13.2799L28.1853 1.75573H4.56807Z" fill="#99A3AD"/>
<path d="M33.309 19.7561H14.0384C13.7042 19.7561 13.4807 19.5359 13.4807 19.2066C13.4807 18.8774 13.7042 18.6572 14.0384 18.6572H33.3111C33.6453 18.6572 33.8688 18.8774 33.8688 19.2066C33.8667 19.5359 33.6432 19.7561 33.309 19.7561Z" fill="#99A3AD"/>
<path d="M33.309 25.1334H7.91003C7.57583 25.1334 7.35232 24.9132 7.35232 24.5839C7.35232 24.2546 7.57582 24.0344 7.91003 24.0344H33.309C33.6432 24.0344 33.8667 24.2546 33.8667 24.5839C33.8667 24.9152 33.6432 25.1334 33.309 25.1334Z" fill="#99A3AD"/>
<path d="M33.309 30.6218H7.91003C7.57583 30.6218 7.35232 30.4016 7.35232 30.0723C7.35232 29.743 7.57582 29.5228 7.91003 29.5228H33.309C33.6432 29.5228 33.8667 29.743 33.8667 30.0723C33.8667 30.4016 33.6432 30.6218 33.309 30.6218Z" fill="#99A3AD"/>
<path d="M33.309 36.1102H7.91003C7.57583 36.1102 7.35232 35.89 7.35232 35.5607C7.35232 35.2314 7.57582 35.0112 7.91003 35.0112H33.309C33.6432 35.0112 33.8667 35.2314 33.8667 35.5607C33.8667 35.89 33.6432 36.1102 33.309 36.1102Z" fill="#99A3AD"/>
<path d="M33.309 41.4874H7.91003C7.57583 41.4874 7.35232 41.2672 7.35232 40.938C7.35232 40.6087 7.57582 40.3885 7.91003 40.3885H33.309C33.6432 40.3885 33.8667 40.6087 33.8667 40.938C33.8667 41.2672 33.6432 41.4874 33.309 41.4874Z" fill="#99A3AD"/>
</svg>
