<svg width="48" height="48" viewBox="0 0 48 48" fill="none" xmlns="http://www.w3.org/2000/svg">
<path d="M24 0.75C11.1594 0.75 0.75 11.1594 0.75 24C0.75 36.8406 11.1594 47.25 24 47.25C36.8406 47.25 47.25 36.8406 47.25 24C47.25 11.1594 36.8406 0.75 24 0.75Z" stroke="white" stroke-width="1.5"/>
<path d="M30.9736 22.951H19.5006L24.5156 17.806C24.7092 17.6043 24.8173 17.3356 24.8173 17.056C24.8173 16.7764 24.7092 16.5077 24.5156 16.306C24.4222 16.208 24.3098 16.1299 24.1854 16.0766C24.0609 16.0233 23.927 15.9958 23.7916 15.9958C23.6562 15.9958 23.5222 16.0233 23.3977 16.0766C23.2733 16.1299 23.161 16.208 23.0676 16.306L16.3006 23.257C16.1078 23.4565 16.0001 23.7231 16.0001 24.0005C16.0001 24.2779 16.1078 24.5445 16.3006 24.744L23.0676 31.692C23.161 31.79 23.2733 31.8681 23.3977 31.9214C23.5222 31.9747 23.6562 32.0022 23.7916 32.0022C23.927 32.0022 24.0609 31.9747 24.1854 31.9214C24.3098 31.8681 24.4222 31.79 24.5156 31.692C24.7083 31.4925 24.8161 31.2259 24.8161 30.9485C24.8161 30.6711 24.7083 30.4045 24.5156 30.205L19.5006 25.06H30.9736C31.2476 25.0515 31.5076 24.9367 31.6985 24.7399C31.8894 24.5431 31.9961 24.2797 31.9961 24.0055C31.9961 23.7313 31.8894 23.4679 31.6985 23.2711C31.5076 23.0742 31.2476 22.9594 30.9736 22.951Z" fill="white"/>
</svg>
